# xmcd CD database file
#
# Track frame offsets:
#	150
#	27436
#	55440
#	95265
#	124158
#	155539
#	195088
#	229124
#
# Disc length: 3459 seconds
#
# Revision: 0
# Processed by: cddbd v1.5.2PL0 Copyright (c) Steve Scherf et al.
# Submitted via: CDex 1.79
#
DISCID=5f0d8108
DTITLE=Snatam Kaur - Heart of the Universe
DYEAR=2012
DGENRE=New Age
TTITLE0=Song of Your Heart
TTITLE1=Sanctuary
TTITLE2=Heart of the Universe
TTITLE3=Soft Like Wax
TTITLE4=Just to Know You
TTITLE5=Carry Me
TTITLE6=Again and Again
TTITLE7=Satigur Prasad
EXTD=YEAR: 2012
EXTT0=
EXTT1=
EXTT2=
EXTT3=
EXTT4=
EXTT5=
EXTT6=
EXTT7=
PLAYORDER=
